

	

Armin_Van_Buuren_vs_Sophie_Ellis-Bextor-Not_Giving_Up_On_Love-DVDRiP-x264-2010-mV4U



[IMG]http://image.geotorrents.com/images/r70wk06a3mbsj0isn8tt.jpg[/IMG]

General 

Complete name : Armin_Van_Buuren_vs_Sophie_Ellis-Bextor-Not_Giving_Up_On_Love-DVDRiP-x264-2010-mV4U
Format : Matroska 
File size : 81.7 MiB 
Duration : 2mn 56s 
Overall bit rate : 3 895 Kbps 
Encoded date : UTC 2011-06-02 20:34:32 
Writing application : mkvmerge v4.3.0 ('Escape from the Island') built on Sep 5 2010 10:30:51 
Writing library : libebml v1.0.0 + libmatroska v1.0.0 


Video 
ID : 1 
Format : AVC 
Format/Info : Advanced Video Codec 
Format profile : Main@L3.0 
Format settings, CABAC : Yes 
Format settings, ReFrames : 5 frames 
Muxing mode : Container profile=Unknown@3.0 
Codec ID : V_MPEG4/ISO/AVC 
Duration : 2mn 56s 
Bit rate : 3 562 Kbps 
Width : 720 pixels 
Height : 576 pixels 
Display aspect ratio : 16/9 
Frame rate : 25.000 fps 
Standard : PAL 
Resolution : 24 bits 
Colorimetry : 4:2:0 
Scan type : Progressive 
Bits/(Pixel*Frame) : 0.344 
Stream size : 74.7 MiB (91%) 
Writing library : x264 core 115 r1995 c1e60b9 
 

Audio 
ID : 2 
Format : MPEG Audio 
Format version : Version 1 
Format profile : Layer 3 
Codec ID : A_MPEG/L3 
Codec ID/Hint : MP3 
Duration : 2mn 56s 
Bit rate mode : Variable 
Bit rate : 256 Kbps 
Minimum bit rate : 32.0 Kbps 
Channel(s) : 2 channels 
Sampling rate : 44.1 KHz 
Resolution : 16 bits 
Video delay : 482ms 
Stream size : 5.37 MiB (7%) 
Writing library : LAME3.98r 
Encoding settings : -m j -V 0 -q 0 -lowpass 19.5 --vbr-new -b 32 







